# xmcd CD database file
#
# Track frame offsets:
#	150
#	10159
#	37639
#	65939
#	88683
#	102482
#	136668
#	167255
#	198224
#	209850
#
# Disc length: 3128 seconds
#
# Revision: 0
# Processed by: cddbd v1.5.2PL0 Copyright (c) Steve Scherf et al.
# Submitted via: CDex 1.70beta2
#
DISCID=810c360a
DTITLE=Jukka Eskola - Walkover
DYEAR=2009
DGENRE=Jazz
TTITLE0=First Time
TTITLE1=Jova
TTITLE2=Chip 'n' Charge
TTITLE3=El Aedaps
TTITLE4=Half Time
TTITLE5=Cadets
TTITLE6=Teddy's Stretch
TTITLE7=Dark Corner
TTITLE8=Double Time
TTITLE9=El Aedaps (Beni Mellal Version)
EXTD=YEAR: 2009
EXTT0=
EXTT1=
EXTT2=
EXTT3=
EXTT4=
EXTT5=
EXTT6=
EXTT7=
EXTT8=
EXTT9=
PLAYORDER=
